<mxfile host="drawio-plugin" modified="2024-04-17T13:30:13.482Z" agent="5.0 (Windows NT 10.0; Win64; x64) AppleWebKit/537.36 (KHTML, like Gecko) Chrome/122.0.0.0 Safari/537.36" etag="al6OUF3_l30Vu-VR5u73" version="20.5.3" type="embed"><diagram id="8NlTprRxcz7c-klF8SXv" name="Page-1"><mxGraphModel dx="2062" dy="1126" grid="1" gridSize="10" guides="1" tooltips="1" connect="1" arrows="1" fold="1" page="1" pageScale="1" pageWidth="850" pageHeight="1100" math="0" shadow="0"><root><mxCell id="0"/><mxCell id="1" parent="0"/><mxCell id="2" value="M&lt;br&gt;Spectrometer" style="whiteSpace=wrap;html=1;aspect=fixed;fillColor=#6a00ff;fontColor=#ffffff;strokeColor=#3700CC;" parent="1" vertex="1"><mxGeometry x="60" y="200" width="80" height="80" as="geometry"/></mxCell><mxCell id="3" value="MZMine3" style="whiteSpace=wrap;html=1;aspect=fixed;fillColor=#d80073;fontColor=#ffffff;strokeColor=#A50040;" parent="1" vertex="1"><mxGeometry x="320" y="200" width="80" height="80" as="geometry"/></mxCell><mxCell id="4" value="Raw file" style="rounded=0;whiteSpace=wrap;html=1;" parent="1" vertex="1"><mxGeometry x="40" y="60" width="120" height="60" as="geometry"/></mxCell><mxCell id="6" value="" style="edgeStyle=segmentEdgeStyle;endArrow=classic;html=1;rounded=0;exitX=1;exitY=0.5;exitDx=0;exitDy=0;entryX=0;entryY=0.5;entryDx=0;entryDy=0;" parent="1" source="4" target="3" edge="1"><mxGeometry width="50" height="50" relative="1" as="geometry"><mxPoint x="500" y="310" as="sourcePoint"/><mxPoint x="260" y="170" as="targetPoint"/><Array as="points"><mxPoint x="220" y="90"/><mxPoint x="220" y="240"/></Array></mxGeometry></mxCell><mxCell id="7" value="" style="edgeStyle=segmentEdgeStyle;endArrow=classic;html=1;rounded=0;exitX=0.5;exitY=0;exitDx=0;exitDy=0;entryX=0.5;entryY=1;entryDx=0;entryDy=0;" parent="1" source="2" target="4" edge="1"><mxGeometry width="50" height="50" relative="1" as="geometry"><mxPoint x="420" y="340" as="sourcePoint"/><mxPoint x="470" y="290" as="targetPoint"/></mxGeometry></mxCell><mxCell id="16" value="&amp;nbsp;Output&amp;nbsp;" style="edgeLabel;html=1;align=center;verticalAlign=middle;resizable=0;points=[];" parent="7" vertex="1" connectable="0"><mxGeometry x="-0.3749" relative="1" as="geometry"><mxPoint as="offset"/></mxGeometry></mxCell><mxCell id="8" value="GNPS" style="whiteSpace=wrap;html=1;aspect=fixed;fillColor=#f0a30a;fontColor=#000000;strokeColor=#BD7000;" parent="1" vertex="1"><mxGeometry x="180" y="280" width="80" height="80" as="geometry"/></mxCell><mxCell id="9" value="" style="edgeStyle=segmentEdgeStyle;endArrow=classic;html=1;rounded=0;exitX=0.5;exitY=1;exitDx=0;exitDy=0;startArrow=classic;startFill=1;entryX=1;entryY=0.5;entryDx=0;entryDy=0;" parent="1" source="3" target="8" edge="1"><mxGeometry width="50" height="50" relative="1" as="geometry"><mxPoint x="420" y="340" as="sourcePoint"/><mxPoint x="220" y="270" as="targetPoint"/><Array as="points"><mxPoint x="360" y="320"/></Array></mxGeometry></mxCell><mxCell id="10" value="Thermofisher&lt;br&gt;Freestyle --&amp;gt; XCalibur" style="rounded=0;whiteSpace=wrap;html=1;fillColor=#1ba1e2;fontColor=#ffffff;strokeColor=#006EAF;" parent="1" vertex="1"><mxGeometry x="280" y="60" width="120" height="60" as="geometry"/></mxCell><mxCell id="11" value="" style="edgeStyle=segmentEdgeStyle;endArrow=classic;html=1;rounded=0;entryX=0;entryY=0.5;entryDx=0;entryDy=0;exitX=1;exitY=0.5;exitDx=0;exitDy=0;" parent="1" source="4" target="10" edge="1"><mxGeometry width="50" height="50" relative="1" as="geometry"><mxPoint x="440" y="210" as="sourcePoint"/><mxPoint x="640" y="355" as="targetPoint"/><Array as="points"><mxPoint x="220" y="90"/><mxPoint x="220" y="90"/></Array></mxGeometry></mxCell><mxCell id="13" value="" style="edgeStyle=segmentEdgeStyle;endArrow=classic;html=1;rounded=0;exitX=1;exitY=0.5;exitDx=0;exitDy=0;entryX=0.5;entryY=0;entryDx=0;entryDy=0;" parent="1" source="4" target="8" edge="1"><mxGeometry width="50" height="50" relative="1" as="geometry"><mxPoint x="290" y="200" as="sourcePoint"/><mxPoint x="180" y="210" as="targetPoint"/><Array as="points"><mxPoint x="220" y="90"/></Array></mxGeometry></mxCell><mxCell id="15" value="&amp;nbsp;Input&amp;nbsp;" style="edgeLabel;html=1;align=center;verticalAlign=middle;resizable=0;points=[];" parent="13" vertex="1" connectable="0"><mxGeometry x="-0.647" relative="1" as="geometry"><mxPoint as="offset"/></mxGeometry></mxCell><mxCell id="17" value="Black Box" style="rounded=0;whiteSpace=wrap;html=1;" parent="1" vertex="1"><mxGeometry x="560" y="60" width="120" height="60" as="geometry"/></mxCell><mxCell id="18" value="" style="edgeStyle=segmentEdgeStyle;endArrow=classic;html=1;rounded=0;entryX=0;entryY=0.5;entryDx=0;entryDy=0;exitX=1;exitY=0.5;exitDx=0;exitDy=0;" parent="1" source="10" target="17" edge="1"><mxGeometry width="50" height="50" relative="1" as="geometry"><mxPoint x="410" y="190" as="sourcePoint"/><mxPoint x="530" y="190" as="targetPoint"/><Array as="points"><mxPoint x="450" y="90"/><mxPoint x="450" y="90"/></Array></mxGeometry></mxCell><mxCell id="19" value="&amp;nbsp;Human intervention&amp;nbsp;&lt;br&gt;copy/paste" style="edgeLabel;html=1;align=center;verticalAlign=middle;resizable=0;points=[];" parent="18" vertex="1" connectable="0"><mxGeometry x="-0.21" y="-2" relative="1" as="geometry"><mxPoint as="offset"/></mxGeometry></mxCell><mxCell id="20" value="mgf" style="whiteSpace=wrap;html=1;aspect=fixed;" parent="1" vertex="1"><mxGeometry x="580" y="200" width="80" height="80" as="geometry"/></mxCell><mxCell id="21" value="" style="edgeStyle=segmentEdgeStyle;endArrow=classic;html=1;rounded=0;exitX=1;exitY=0.5;exitDx=0;exitDy=0;entryX=0;entryY=0.5;entryDx=0;entryDy=0;" parent="1" source="3" target="20" edge="1"><mxGeometry width="50" height="50" relative="1" as="geometry"><mxPoint x="400" y="250" as="sourcePoint"/><mxPoint x="450" y="200" as="targetPoint"/><Array as="points"><mxPoint x="530" y="240"/><mxPoint x="530" y="240"/></Array></mxGeometry></mxCell><mxCell id="22" value="" style="edgeStyle=segmentEdgeStyle;endArrow=classic;html=1;rounded=0;exitX=0.5;exitY=1;exitDx=0;exitDy=0;entryX=0.5;entryY=0;entryDx=0;entryDy=0;" parent="1" source="17" target="20" edge="1"><mxGeometry width="50" height="50" relative="1" as="geometry"><mxPoint x="400" y="290" as="sourcePoint"/><mxPoint x="450" y="240" as="targetPoint"/></mxGeometry></mxCell><mxCell id="26" value="&amp;nbsp;Human intervention&amp;nbsp;&lt;br&gt;copy/paste" style="edgeLabel;html=1;align=center;verticalAlign=middle;resizable=0;points=[];" parent="22" vertex="1" connectable="0"><mxGeometry x="-0.3583" relative="1" as="geometry"><mxPoint as="offset"/></mxGeometry></mxCell><mxCell id="23" value="Storage" style="shape=cylinder3;whiteSpace=wrap;html=1;boundedLbl=1;backgroundOutline=1;size=15;" parent="1" vertex="1"><mxGeometry x="510" y="360" width="60" height="80" as="geometry"/></mxCell><mxCell id="25" value="&lt;br&gt;OBS&lt;br&gt;DB" style="strokeWidth=2;html=1;shape=mxgraph.flowchart.database;whiteSpace=wrap;" parent="1" vertex="1"><mxGeometry x="620" y="370" width="60" height="60" as="geometry"/></mxCell><mxCell id="27" value="OBS&lt;br&gt;Website&lt;br&gt;&lt;br&gt;MolRefAnt" style="rounded=1;whiteSpace=wrap;html=1;absoluteArcSize=1;arcSize=14;strokeWidth=2;" parent="1" vertex="1"><mxGeometry x="360" y="440" width="120" height="120" as="geometry"/></mxCell><mxCell id="28" value="" style="edgeStyle=segmentEdgeStyle;endArrow=classic;html=1;rounded=0;exitX=0.5;exitY=1;exitDx=0;exitDy=0;entryX=0.5;entryY=0;entryDx=0;entryDy=0;entryPerimeter=0;" parent="1" source="20" target="23" edge="1"><mxGeometry width="50" height="50" relative="1" as="geometry"><mxPoint x="280" y="390" as="sourcePoint"/><mxPoint x="330" y="340" as="targetPoint"/><Array as="points"><mxPoint x="620" y="320"/><mxPoint x="540" y="320"/></Array></mxGeometry></mxCell><mxCell id="29" value="" style="edgeStyle=segmentEdgeStyle;endArrow=classic;html=1;rounded=0;exitX=0.5;exitY=1;exitDx=0;exitDy=0;entryX=0.5;entryY=0;entryDx=0;entryDy=0;entryPerimeter=0;" parent="1" source="20" target="25" edge="1"><mxGeometry width="50" height="50" relative="1" as="geometry"><mxPoint x="280" y="390" as="sourcePoint"/><mxPoint x="330" y="340" as="targetPoint"/><Array as="points"><mxPoint x="620" y="320"/><mxPoint x="650" y="320"/></Array></mxGeometry></mxCell><mxCell id="30" value="&lt;br&gt;Other&lt;br&gt;DB" style="strokeWidth=2;html=1;shape=mxgraph.flowchart.database;whiteSpace=wrap;" parent="1" vertex="1"><mxGeometry x="720" y="370" width="60" height="60" as="geometry"/></mxCell><mxCell id="31" value="" style="edgeStyle=segmentEdgeStyle;endArrow=classic;html=1;rounded=0;exitX=0.5;exitY=1;exitDx=0;exitDy=0;entryX=1;entryY=0.5;entryDx=0;entryDy=0;exitPerimeter=0;" parent="1" source="23" target="27" edge="1"><mxGeometry width="50" height="50" relative="1" as="geometry"><mxPoint x="630" y="442" as="sourcePoint"/><mxPoint x="550" y="522" as="targetPoint"/><Array as="points"><mxPoint x="540" y="500"/></Array></mxGeometry></mxCell><mxCell id="32" value="" style="edgeStyle=segmentEdgeStyle;endArrow=classic;html=1;rounded=0;exitX=0.5;exitY=1;exitDx=0;exitDy=0;entryX=1;entryY=0.5;entryDx=0;entryDy=0;exitPerimeter=0;" parent="1" source="25" target="27" edge="1"><mxGeometry width="50" height="50" relative="1" as="geometry"><mxPoint x="630" y="442" as="sourcePoint"/><mxPoint x="660" y="522" as="targetPoint"/><Array as="points"><mxPoint x="650" y="500"/></Array></mxGeometry></mxCell><mxCell id="37" value="ms2" style="edgeLabel;html=1;align=center;verticalAlign=middle;resizable=0;points=[];" parent="32" vertex="1" connectable="0"><mxGeometry x="0.1117" y="-1" relative="1" as="geometry"><mxPoint as="offset"/></mxGeometry></mxCell><mxCell id="33" value="" style="edgeStyle=segmentEdgeStyle;endArrow=none;html=1;rounded=0;exitX=1;exitY=0.5;exitDx=0;exitDy=0;exitPerimeter=0;entryX=0;entryY=0.5;entryDx=0;entryDy=0;entryPerimeter=0;endFill=0;" parent="1" source="23" target="25" edge="1"><mxGeometry width="50" height="50" relative="1" as="geometry"><mxPoint x="280" y="380" as="sourcePoint"/><mxPoint x="330" y="330" as="targetPoint"/></mxGeometry></mxCell><mxCell id="34" value="" style="edgeStyle=segmentEdgeStyle;endArrow=classic;html=1;rounded=0;exitX=0.5;exitY=1;exitDx=0;exitDy=0;exitPerimeter=0;entryX=1;entryY=0.5;entryDx=0;entryDy=0;" parent="1" source="30" target="27" edge="1"><mxGeometry width="50" height="50" relative="1" as="geometry"><mxPoint x="660" y="440" as="sourcePoint"/><mxPoint x="480" y="500" as="targetPoint"/><Array as="points"><mxPoint x="750" y="500"/></Array></mxGeometry></mxCell><mxCell id="35" value="" style="edgeStyle=segmentEdgeStyle;endArrow=classic;html=1;rounded=0;exitX=0;exitY=0.75;exitDx=0;exitDy=0;entryX=0.5;entryY=0;entryDx=0;entryDy=0;fillColor=#e3c800;strokeColor=#B09500;strokeWidth=3;dashed=1;dashPattern=1 1;" parent="1" source="17" target="27" edge="1"><mxGeometry width="50" height="50" relative="1" as="geometry"><mxPoint x="440" y="390" as="sourcePoint"/><mxPoint x="490" y="340" as="targetPoint"/><Array as="points"><mxPoint x="510" y="105"/><mxPoint x="510" y="280"/><mxPoint x="420" y="280"/></Array></mxGeometry></mxCell><mxCell id="36" value="ms2" style="edgeLabel;html=1;align=center;verticalAlign=middle;resizable=0;points=[];" parent="35" vertex="1" connectable="0"><mxGeometry x="0.5091" y="-1" relative="1" as="geometry"><mxPoint as="offset"/></mxGeometry></mxCell><mxCell id="38" value="Met Frag&lt;br&gt;Website&lt;br&gt;&lt;br&gt;https://msbi.ipb-halle.de/MetFrag/" style="rounded=1;whiteSpace=wrap;html=1;absoluteArcSize=1;arcSize=14;strokeWidth=2;" parent="1" vertex="1"><mxGeometry x="200" y="440" width="120" height="120" as="geometry"/></mxCell><mxCell id="39" value="" style="edgeStyle=segmentEdgeStyle;endArrow=classic;html=1;rounded=0;exitX=0;exitY=0.75;exitDx=0;exitDy=0;entryX=0.5;entryY=0;entryDx=0;entryDy=0;fillColor=#ffcd28;strokeColor=#d79b00;strokeWidth=3;dashed=1;dashPattern=1 1;gradientColor=#ffa500;" parent="1" source="17" target="38" edge="1"><mxGeometry width="50" height="50" relative="1" as="geometry"><mxPoint x="570" y="115" as="sourcePoint"/><mxPoint x="430" y="450" as="targetPoint"/><Array as="points"><mxPoint x="560" y="115"/><mxPoint x="510" y="115"/><mxPoint x="510" y="270"/><mxPoint x="430" y="270"/><mxPoint x="430" y="400"/><mxPoint x="260" y="400"/></Array></mxGeometry></mxCell><mxCell id="40" value="ms2" style="edgeLabel;html=1;align=center;verticalAlign=middle;resizable=0;points=[];" parent="39" vertex="1" connectable="0"><mxGeometry x="0.5091" y="-1" relative="1" as="geometry"><mxPoint as="offset"/></mxGeometry></mxCell><mxCell id="41" value="nuage" style="aspect=fixed;perimeter=ellipsePerimeter;html=1;align=center;shadow=0;dashed=0;spacingTop=3;image;image=img/lib/active_directory/internet_cloud.svg;" parent="1" vertex="1"><mxGeometry x="560" y="560" width="142.86" height="90" as="geometry"/></mxCell><mxCell id="42" value="" style="edgeStyle=segmentEdgeStyle;endArrow=classic;html=1;rounded=0;strokeWidth=3;exitX=0.5;exitY=1;exitDx=0;exitDy=0;entryX=0;entryY=0.5;entryDx=0;entryDy=0;startArrow=classic;startFill=1;" parent="1" source="27" target="41" edge="1"><mxGeometry width="50" height="50" relative="1" as="geometry"><mxPoint x="360" y="520" as="sourcePoint"/><mxPoint x="410" y="470" as="targetPoint"/><Array as="points"><mxPoint x="420" y="605"/></Array></mxGeometry></mxCell><mxCell id="43" value="mgl" style="whiteSpace=wrap;html=1;aspect=fixed;" parent="1" vertex="1"><mxGeometry x="900" y="200" width="80" height="80" as="geometry"/></mxCell><mxCell id="44" value="metgem" style="whiteSpace=wrap;html=1;aspect=fixed;" parent="1" vertex="1"><mxGeometry x="710" y="200" width="80" height="80" as="geometry"/></mxCell><mxCell id="45" value="" style="edgeStyle=segmentEdgeStyle;endArrow=classic;html=1;rounded=0;strokeWidth=3;exitX=1;exitY=0.5;exitDx=0;exitDy=0;entryX=0;entryY=0.5;entryDx=0;entryDy=0;" parent="1" source="20" target="44" edge="1"><mxGeometry width="50" height="50" relative="1" as="geometry"><mxPoint x="630" y="340" as="sourcePoint"/><mxPoint x="680" y="290" as="targetPoint"/></mxGeometry></mxCell><mxCell id="51" value="&amp;nbsp;IO&amp;nbsp;" style="edgeLabel;html=1;align=center;verticalAlign=middle;resizable=0;points=[];" parent="45" vertex="1" connectable="0"><mxGeometry x="-0.328" y="2" relative="1" as="geometry"><mxPoint as="offset"/></mxGeometry></mxCell><mxCell id="46" value="" style="edgeStyle=segmentEdgeStyle;endArrow=classic;html=1;rounded=0;strokeWidth=3;exitX=1;exitY=0.5;exitDx=0;exitDy=0;entryX=0;entryY=0.5;entryDx=0;entryDy=0;" parent="1" source="44" target="43" edge="1"><mxGeometry width="50" height="50" relative="1" as="geometry"><mxPoint x="670" y="250" as="sourcePoint"/><mxPoint x="720" y="250" as="targetPoint"/></mxGeometry></mxCell><mxCell id="50" value="&amp;nbsp;Identifier&amp;nbsp;" style="edgeLabel;html=1;align=center;verticalAlign=middle;resizable=0;points=[];" parent="46" vertex="1" connectable="0"><mxGeometry x="-0.3431" y="1" relative="1" as="geometry"><mxPoint as="offset"/></mxGeometry></mxCell><mxCell id="47" value="Actor" style="shape=umlActor;verticalLabelPosition=bottom;verticalAlign=top;html=1;outlineConnect=0;fillColor=#e51400;fontColor=#ffffff;strokeColor=#B20000;" parent="1" vertex="1"><mxGeometry x="672.86" y="130" width="30" height="60" as="geometry"/></mxCell><mxCell id="48" value="Actor" style="shape=umlActor;verticalLabelPosition=bottom;verticalAlign=top;html=1;outlineConnect=0;fillColor=#e51400;fontColor=#ffffff;strokeColor=#B20000;" parent="1" vertex="1"><mxGeometry x="460" y="10" width="30" height="60" as="geometry"/></mxCell><mxCell id="49" value="Actor" style="shape=umlActor;verticalLabelPosition=bottom;verticalAlign=top;html=1;outlineConnect=0;fillColor=#e51400;fontColor=#ffffff;strokeColor=#B20000;" parent="1" vertex="1"><mxGeometry x="450" y="290" width="30" height="60" as="geometry"/></mxCell><mxCell id="52" value="" style="verticalLabelPosition=bottom;sketch=0;aspect=fixed;html=1;verticalAlign=top;strokeColor=#3700CC;align=center;outlineConnect=0;shape=mxgraph.citrix.role_appcontroller;fillColor=#6a00ff;gradientDirection=south;rotation=90;fontColor=#ffffff;" parent="1" vertex="1"><mxGeometry x="901" y="361" width="78" height="78" as="geometry"/></mxCell><mxCell id="53" value="" style="edgeStyle=segmentEdgeStyle;endArrow=classic;html=1;rounded=0;strokeWidth=3;exitX=0.5;exitY=1;exitDx=0;exitDy=0;entryX=0.009;entryY=0.501;entryDx=0;entryDy=0;entryPerimeter=0;" parent="1" source="43" target="52" edge="1"><mxGeometry width="50" height="50" relative="1" as="geometry"><mxPoint x="800" y="250" as="sourcePoint"/><mxPoint x="910" y="250" as="targetPoint"/></mxGeometry></mxCell><mxCell id="54" value="What are the&lt;br&gt;neighbors&amp;nbsp;" style="edgeLabel;html=1;align=center;verticalAlign=middle;resizable=0;points=[];" parent="53" vertex="1" connectable="0"><mxGeometry x="-0.3431" y="1" relative="1" as="geometry"><mxPoint as="offset"/></mxGeometry></mxCell><mxCell id="55" value="Actor" style="shape=umlActor;verticalLabelPosition=bottom;verticalAlign=top;html=1;outlineConnect=0;fillColor=#60a917;fontColor=#ffffff;strokeColor=#2D7600;" vertex="1" parent="1"><mxGeometry x="430" y="170" width="30" height="60" as="geometry"/></mxCell></root></mxGraphModel></diagram></mxfile>